<?xml version="1.0" encoding="UTF-8"?>
<svg id="Layer_1" xmlns="http://www.w3.org/2000/svg" version="1.1" viewBox="0 0 566 150">
  <!-- Generator: Adobe Illustrator 30.2.1, SVG Export Plug-In . SVG Version: 2.1.1 Build 1)  -->
  <defs>
    <style>
      .st0 {
        fill: #00a99d;
      }

      .st1 {
        fill: #d9e021;
      }

      .st2 {
        fill: #009245;
      }

      .st3 {
        fill: #fcee21;
      }

      .st4 {
        fill: #8cc63f;
      }

      .st5 {
        fill: #82d6f4;
      }

      .st6 {
        fill: #020044;
      }

      .st7 {
        fill: #e02f39;
      }

      .st8 {
        fill: #fff;
      }

      .st9 {
        fill: #39b54a;
      }

      .st10 {
        fill: #22b573;
      }

      .st11 {
        fill: #29abe2;
      }

      .st12 {
        fill: #006837;
      }
    </style>
  </defs>
  <g>
    <path class="st6" d="M189.1,74.5c-2-2.4-3-5.5-3-9.4s.8-4.9,2.3-7.1c1.5-2.2,3.7-4.1,6.6-5.5,2.9-1.4,6.2-2.1,9.9-2.1s7.1.5,10,1.6c2.9,1.1,5.1,2.5,6.7,4.4,1.6,1.8,2.5,3.7,2.6,5.7,0,.7-.2,1.2-.7,1.7-.5.5-1.1.7-1.8.7h-7c-.7,0-1.3-.1-1.7-.3-.4-.2-.9-.5-1.4-1-.7-.6-1.6-1.1-2.5-1.5-.9-.4-2.4-.5-4.2-.5s-3.7.3-5,.9c-1.3.6-2,1.5-2,2.8s.3,1.6,1,2.1c.6.5,1.7,1,3.3,1.4,1.6.4,4.4,1,8.6,2,5.2,1.1,9,2.9,11.3,5.3,2.3,2.4,3.5,5.5,3.5,9.3s-.8,4.8-2.5,7.1c-1.6,2.2-4,4-7.1,5.4-3.1,1.4-6.6,2-10.7,2s-7.6-.6-10.6-1.9c-3-1.2-5.3-2.8-6.9-4.8-1.6-1.9-2.5-3.9-2.6-6,0-.7.2-1.2.7-1.7.5-.5,1.1-.7,1.8-.7h7c.7,0,1.2.1,1.6.4.4.2.9.6,1.4,1.1.8.9,1.8,1.5,2.8,2,1,.5,2.6.7,4.8.7s4.1-.3,5.8-.9c1.7-.6,2.6-1.5,2.6-2.7s-.3-1.4-.9-1.9c-.6-.5-1.5-.9-2.8-1.2-1.3-.4-3.5-.9-6.6-1.5l-3.6-.7c-5.1-1.2-8.7-2.9-10.7-5.3"/>
    <path class="st6" d="M252.3,51.8c2.1-.9,4.2-1.4,6.5-1.4,7,0,12.1,2.6,15.1,7.7,1.6-2.4,3.7-4.2,6.5-5.6,2.8-1.4,5.5-2.1,8.2-2.1,6.4,0,11.1,2,13.9,5.9,2.8,3.9,4.2,9.1,4.2,15.4v24.5c0,.7-.2,1.2-.7,1.7-.5.5-1.1.7-1.7.7h-6.9c-.7,0-1.2-.2-1.7-.7-.5-.5-.7-1.1-.7-1.7v-24c0-3.9-.8-6.8-2.3-8.5-1.5-1.7-3.8-2.6-6.7-2.6s-4.8.9-6.4,2.5c-1.7,1.7-2.5,4.4-2.6,8.1v24.5c0,.7-.2,1.2-.7,1.7-.5.5-1.1.7-1.7.7h-6.9c-.7,0-1.2-.2-1.7-.7-.5-.5-.7-1.1-.7-1.7v-24c0-3.9-.8-6.8-2.3-8.5-1.5-1.7-3.8-2.6-6.7-2.6s-4.8.9-6.5,2.7c-1.7,1.8-2.5,4.6-2.5,8.4v24c0,.7-.2,1.2-.7,1.7-.5.5-1.1.7-1.7.7h-6.9c-.7,0-1.2-.2-1.7-.7-.5-.5-.7-1.1-.7-1.7v-42.4c0-.7.2-1.2.7-1.7.5-.5,1.1-.7,1.7-.7h6.9c.7,0,1.2.2,1.7.7.5.5.7,1.1.7,1.7v2.1c1.5-1.8,3.2-3.1,5.3-4.1"/>
    <path class="st6" d="M389.5,64.7c-1.6,1.6-2.4,4.2-2.4,7.9v23.7c0,.7-.2,1.2-.7,1.7-.5.5-1.1.7-1.7.7h-6.9c-.7,0-1.2-.2-1.7-.7-.5-.5-.7-1.1-.7-1.7v-42.4c0-.7.2-1.2.7-1.7.5-.5,1.1-.7,1.7-.7h6.9c.7,0,1.2.2,1.7.7.5.5.7,1.1.7,1.7v2.1c1.6-1.6,3.4-2.7,5.2-3.5,1.8-.7,4.1-1.1,6.9-1.1h4.1c.7,0,1.2.2,1.7.7.5.5.7,1.1.7,1.7v6c0,.7-.2,1.2-.7,1.7-.5.5-1.1.7-1.7.7h-5.9c-3.6,0-6.3.8-7.9,2.4"/>
    <path class="st6" d="M412.9,51.3v-14.8c0-.7.2-1.2.7-1.7.5-.5,1.1-.7,1.7-.7h6.9c.7,0,1.2.2,1.7.7.5.5.7,1.1.7,1.7v14.8h11.7c.7,0,1.2.2,1.7.7.5.5.7,1.1.7,1.7v6c0,.7-.2,1.2-.7,1.7-.5.5-1.1.7-1.7.7h-11.7v19.3c0,2,.5,3.5,1.6,4.6,1.1,1.1,2.9,1.6,5.5,1.6h5.6c.7,0,1.2.2,1.7.7.5.5.7,1.1.7,1.7v6c0,.7-.2,1.2-.7,1.7-.5.5-1.1.7-1.7.7h-6.7c-5.8,0-10.2-1.4-13.2-4.2-3-2.8-4.6-7-4.6-12.6v-30.5Z"/>
    <path class="st6" d="M494.7,75c0,1.5,0,2.6,0,3.2-.2,3.8-1.1,7.4-2.8,10.6-1.7,3.2-4,5.9-7.1,7.8-3,2-6.5,3-10.4,3s-6.2-.5-8.5-1.6c-2.2-1.1-4-2.4-5.3-3.8v2.1c0,.7-.2,1.2-.7,1.7-.5.5-1.1.7-1.7.7h-6.9c-.7,0-1.2-.2-1.7-.7-.5-.5-.7-1.1-.7-1.7v-59.7c0-.7.2-1.2.7-1.7.5-.5,1.1-.7,1.7-.7h6.9c.7,0,1.2.2,1.7.7.5.5.7,1.1.7,1.7v19.4c1.3-1.5,3.1-2.7,5.4-3.8,2.2-1.1,5-1.6,8.4-1.6s7.4,1,10.4,3c3,2,5.4,4.6,7.1,7.8,1.7,3.2,2.6,6.8,2.8,10.6,0,.6,0,1.7,0,3.2M464.1,64.1c-2,1.9-3.2,4.3-3.5,7.4,0,.6,0,1.8,0,3.5s0,2.9,0,3.5c.3,3.2,1.5,5.7,3.5,7.5,2,1.8,4.5,2.7,7.6,2.7s5.6-.9,7.6-2.7c2-1.8,3.2-4.6,3.6-8.4.1-1.2.2-2.1.2-2.5,0-4.6-1-8-3.1-10.3-2.1-2.2-4.8-3.4-8.3-3.4s-5.5.9-7.5,2.8"/>
    <path class="st6" d="M516.7,34.8c.5.5.7,1.1.7,1.7v7.1c0,.7-.2,1.2-.7,1.7-.5.5-1.1.7-1.7.7h-7.8c-.7,0-1.2-.2-1.7-.7-.5-.5-.7-1.1-.7-1.7v-7.1c0-.7.2-1.2.7-1.7.5-.5,1.1-.7,1.7-.7h7.8c.7,0,1.2.2,1.7.7M516.2,97.9c-.5.5-1.1.7-1.7.7h-6.9c-.7,0-1.2-.2-1.7-.7-.5-.5-.7-1.1-.7-1.7v-42.4c0-.7.2-1.2.7-1.7.5-.5,1.1-.7,1.7-.7h6.9c.7,0,1.2.2,1.7.7.5.5.7,1.1.7,1.7v42.4c0,.7-.2,1.2-.7,1.7"/>
    <path class="st6" d="M540.6,97.9c-.5.5-1.1.7-1.7.7h-6.9c-.7,0-1.2-.2-1.7-.7-.5-.5-.7-1.1-.7-1.7v-59.7c0-.7.2-1.2.7-1.7.5-.5,1.1-.7,1.7-.7h6.9c.7,0,1.2.2,1.7.7.5.5.7,1.1.7,1.7v59.7c0,.7-.2,1.2-.7,1.7"/>
    <path class="st6" d="M565,97.9c-.5.5-1.1.7-1.7.7h-6.9c-.7,0-1.2-.2-1.7-.7-.5-.5-.7-1.1-.7-1.7v-59.7c0-.7.2-1.2.7-1.7.5-.5,1.1-.7,1.7-.7h6.9c.7,0,1.2.2,1.7.7.5.5.7,1.1.7,1.7v59.7c0,.7-.2,1.2-.7,1.7"/>
    <path class="st6" d="M361.9,52.1c-.5-.5-1.1-.7-1.7-.7h-6.9c-.7,0-1.2.2-1.7.7-.5.5-.7,1.1-.7,1.7v2.1c-1.3-1.5-3.1-2.7-5.4-3.8-2.2-1.1-5-1.6-8.4-1.6s-7.4,1-10.4,3c-3,2-5.4,4.6-7.1,7.8-1.7,3.2-2.6,6.8-2.8,10.6v3.2c0,0,0,3.2,0,3.2.2,3.8,1.1,7.4,2.8,10.6,1.7,3.2,4.1,5.9,7.1,7.8,3,2,6.5,3,10.4,3s6.1-.5,8.4-1.6c2.2-1.1,4-2.4,5.4-3.8v2.1c0,.7.2,1.2.7,1.7.5.5,1.1.7,1.7.7h6.9c.7,0,1.2-.2,1.7-.7.5-.5.7-1.1.7-1.7v-42.4c0-.7-.2-1.2-.7-1.7M350.8,78.5c-.3,3.1-1.5,5.6-3.5,7.4-2,1.9-4.5,2.8-7.5,2.8s-5.6-.9-7.6-2.7c-2-1.8-3.2-4.6-3.5-8.4,0-.6,0-1.5,0-2.5s0-1.9,0-2.5c.4-3.8,1.5-6.6,3.5-8.4,2-1.8,4.6-2.7,7.6-2.7s5.5.9,7.5,2.8c2,1.9,3.2,4.3,3.5,7.4.1,1.2.2,2.4.2,3.5s0,2.2-.2,3.5"/>
    <path class="st6" d="M133.5,115.4l-17.8,17.8c-22.3,22.3-58.5,22.3-80.8,0l-17.8-17.8c-22.3-22.3-22.3-58.5,0-80.9l17.8-17.8c22.3-22.3,58.5-22.3,80.8,0l17.8,17.8c22.3,22.3,22.3,58.5,0,80.9"/>
    <rect class="st9" x="61.8" y="113.8" width="17.1" height="5.1" transform="translate(-58.5 159.4) rotate(-77.3)"/>
    <rect class="st8" x="75.2" y="74.4" width="17.1" height="5.1" transform="translate(-21.1 120.9) rotate(-65.3)"/>
    <rect class="st4" x="53.9" y="110.1" width="17.1" height="5.1" transform="translate(-65.2 95.5) rotate(-53.3)"/>
    <rect class="st1" x="48.2" y="103.6" width="17.1" height="5.1" transform="translate(-44.7 41.4) rotate(-29.3)"/>
    <rect class="st3" x="45.6" y="95.3" width="17.1" height="5.1" transform="translate(-8.8 5.4) rotate(-5.3)"/>
    <rect class="st2" x="76.6" y="107.8" width="5.1" height="17.1" transform="translate(-21.3 17.8) rotate(-11.3)"/>
    <rect class="st12" x="84.6" y="104.4" width="5.1" height="17.1" transform="translate(-49.3 71.1) rotate(-35.3)"/>
    <rect class="st10" x="90.5" y="98" width="5.1" height="17.1" transform="translate(-46.1 132.1) rotate(-59.3)"/>
    <rect class="st0" x="93.2" y="89.8" width="5.1" height="17.1" transform="translate(-13 182) rotate(-83.3)"/>
    <rect class="st11" x="86.4" y="87.1" width="17.1" height="5.1" transform="translate(-22.4 32.3) rotate(-17.3)"/>
    <rect class="st5" x="82.1" y="79.6" width="17.1" height="5.1" transform="translate(-31.6 80.3) rotate(-41.3)"/>
    <rect class="st9" x="71.6" y="31.2" width="17.1" height="5.1" transform="translate(29.7 104.4) rotate(-77.3)"/>
    <rect class="st8" x="58.2" y="70.5" width="17.1" height="5.1" transform="translate(-27.5 103.3) rotate(-65.3)"/>
    <rect class="st4" x="79.5" y="34.8" width="17.1" height="5.1" transform="translate(5.5 85.6) rotate(-53.3)"/>
    <rect class="st1" x="85.2" y="41.3" width="17.1" height="5.1" transform="translate(-9.5 51.5) rotate(-29.3)"/>
    <rect class="st3" x="87.8" y="49.6" width="17.1" height="5.1" transform="translate(-4.4 9.1) rotate(-5.3)"/>
    <rect class="st2" x="68.9" y="25" width="5.1" height="17.1" transform="translate(-5.2 14.7) rotate(-11.3)"/>
    <rect class="st12" x="60.9" y="28.5" width="5.1" height="17.1" transform="translate(-9.7 43.5) rotate(-35.3)"/>
    <rect class="st10" x="55" y="34.8" width="5.1" height="17.1" transform="translate(-9.1 70.7) rotate(-59.3)"/>
    <rect class="st0" x="52.2" y="43.1" width="5.1" height="17.1" transform="translate(-2.9 100) rotate(-83.3)"/>
    <rect class="st11" x="47" y="57.8" width="17.1" height="5.1" transform="translate(-15.4 19.3) rotate(-17.3)"/>
    <rect class="st5" x="51.3" y="65.4" width="17.1" height="5.1" transform="translate(-29.9 56.4) rotate(-41.3)"/>
    <polygon class="st8" points="77.7 83.6 77.7 83.6 77.9 66.4 72.9 66.4 72.9 66.4 72.8 66.4 72.6 83.5 77.7 83.6 77.7 83.6"/>
  </g>
</svg>