<svg xmlns="http://www.w3.org/2000/svg" width="114.01" height="30" viewBox="0 0 114.01 30">
  <g id="sb_logo_114x30_gray" transform="translate(-4618.979 -1517.024)">
    <g id="Group_4909" data-name="Group 4909" transform="translate(4656.337 1523.829)">
      <path id="Path_6396" data-name="Path 6396" d="M4690.37,1540.96a2.793,2.793,0,0,1-.614-1.888,2.514,2.514,0,0,1,.458-1.43,3.288,3.288,0,0,1,1.321-1.1,4.487,4.487,0,0,1,2-.422,5.641,5.641,0,0,1,2.007.33,3.354,3.354,0,0,1,1.357.88,1.907,1.907,0,0,1,.521,1.155.405.405,0,0,1-.137.348.5.5,0,0,1-.357.147h-1.412a.784.784,0,0,1-.349-.064,1.34,1.34,0,0,1-.275-.192,1.79,1.79,0,0,0-.5-.293,2.486,2.486,0,0,0-.853-.11,2.368,2.368,0,0,0-1,.184.6.6,0,0,0-.394.568.527.527,0,0,0,.191.431,1.811,1.811,0,0,0,.67.275q.476.12,1.723.4a4.291,4.291,0,0,1,2.273,1.063,2.6,2.6,0,0,1,.7,1.87,2.342,2.342,0,0,1-.5,1.421,3.471,3.471,0,0,1-1.421,1.082,5.242,5.242,0,0,1-2.154.412,5.569,5.569,0,0,1-2.137-.376,3.516,3.516,0,0,1-1.393-.962,2.084,2.084,0,0,1-.521-1.21.414.414,0,0,1,.138-.349.508.508,0,0,1,.356-.146h1.413a.662.662,0,0,1,.329.073,1.353,1.353,0,0,1,.275.22,2.029,2.029,0,0,0,.568.4,2.418,2.418,0,0,0,.972.146,3.651,3.651,0,0,0,1.173-.174q.513-.174.514-.541a.443.443,0,0,0-.183-.375,1.764,1.764,0,0,0-.568-.248q-.385-.109-1.32-.312l-.715-.146a3.921,3.921,0,0,1-2.153-1.064" transform="translate(-4689.574 -1532.823)" fill="#a7a7a7"/>
      <path id="Path_6397" data-name="Path 6397" d="M4712.08,1536.41a3.1,3.1,0,0,1,1.3-.284,3.252,3.252,0,0,1,3.043,1.558,3.345,3.345,0,0,1,1.31-1.136,3.658,3.658,0,0,1,1.659-.422,3.213,3.213,0,0,1,2.8,1.182,5.193,5.193,0,0,1,.852,3.108v4.932a.5.5,0,0,1-.493.495h-1.394a.5.5,0,0,1-.5-.495v-4.84a2.583,2.583,0,0,0-.459-1.714,1.7,1.7,0,0,0-1.355-.523,1.736,1.736,0,0,0-1.292.513,2.322,2.322,0,0,0-.522,1.632v4.932a.5.5,0,0,1-.5.495h-1.393a.5.5,0,0,1-.5-.495v-4.84a2.582,2.582,0,0,0-.458-1.714,1.937,1.937,0,0,0-2.667.019,2.424,2.424,0,0,0-.5,1.7v4.84a.5.5,0,0,1-.494.5h-1.394a.468.468,0,0,1-.349-.146.475.475,0,0,1-.146-.348V1536.8a.5.5,0,0,1,.5-.495h1.394a.5.5,0,0,1,.494.495v.422a2.953,2.953,0,0,1,1.064-.815" transform="translate(-4698.548 -1532.823)" fill="#a7a7a7"/>
      <path id="Path_6398" data-name="Path 6398" d="M4764.79,1539.15a2.177,2.177,0,0,0-.486,1.586v4.766a.5.5,0,0,1-.5.5h-1.394a.5.5,0,0,1-.494-.5v-8.543a.5.5,0,0,1,.494-.5h1.394a.5.5,0,0,1,.5.5v.421a3.258,3.258,0,0,1,1.045-.7,3.792,3.792,0,0,1,1.394-.22h.824a.5.5,0,0,1,.5.5v1.209a.5.5,0,0,1-.5.5h-1.19a2.179,2.179,0,0,0-1.586.486" transform="translate(-4723.634 -1532.985)" fill="#a7a7a7"/>
      <path id="Path_6399" data-name="Path 6399" d="M4776.25,1533.37v-2.988a.5.5,0,0,1,.5-.495h1.4a.5.5,0,0,1,.5.495v2.988h2.364a.5.5,0,0,1,.5.495v1.21a.5.5,0,0,1-.5.5h-2.364v3.887a1.248,1.248,0,0,0,.321.925,1.536,1.536,0,0,0,1.108.321h1.119a.5.5,0,0,1,.494.495v1.21a.5.5,0,0,1-.494.495h-1.358a3.763,3.763,0,0,1-2.657-.853,3.3,3.3,0,0,1-.917-2.539v-6.141Z" transform="translate(-4730.381 -1529.886)" fill="#a7a7a7"/>
      <path id="Path_6400" data-name="Path 6400" d="M4799.15,1538.14q0,.459-.018.642a5.044,5.044,0,0,1-.569,2.136,4.159,4.159,0,0,1-1.42,1.576,3.735,3.735,0,0,1-2.1.6,3.9,3.9,0,0,1-1.7-.33,3.321,3.321,0,0,1-1.062-.77v.421a.5.5,0,0,1-.5.5h-1.393a.5.5,0,0,1-.5-.5v-12.027a.5.5,0,0,1,.5-.495h1.393a.5.5,0,0,1,.5.495v3.9a3.553,3.553,0,0,1,1.08-.77,3.858,3.858,0,0,1,1.688-.33,3.741,3.741,0,0,1,2.1.6,4.161,4.161,0,0,1,1.42,1.577,5.05,5.05,0,0,1,.569,2.136q.018.183.018.641m-6.168-2.19a2.229,2.229,0,0,0-.706,1.494q-.019.184-.019.7t.019.7a2.218,2.218,0,0,0,.7,1.513,2.423,2.423,0,0,0,3.062-.009,2.517,2.517,0,0,0,.714-1.687q.036-.366.036-.514a2.983,2.983,0,0,0-.624-2.071,2.358,2.358,0,0,0-3.18-.119" transform="translate(-4736.809 -1529.886)" fill="#a7a7a7"/>
      <path id="Path_6401" data-name="Path 6401" d="M4813.59,1530.03a.476.476,0,0,1,.146.348v1.43a.5.5,0,0,1-.494.5h-1.578a.5.5,0,0,1-.5-.5v-1.43a.5.5,0,0,1,.5-.495h1.578a.474.474,0,0,1,.348.147m-.092,12.724a.475.475,0,0,1-.348.146h-1.394a.5.5,0,0,1-.5-.495v-8.544a.5.5,0,0,1,.5-.5h1.394a.5.5,0,0,1,.5.495v8.544a.477.477,0,0,1-.146.348" transform="translate(-4746.826 -1529.886)" fill="#a7a7a7"/>
      <path id="Path_6402" data-name="Path 6402" d="M4822.86,1542.76a.479.479,0,0,1-.35.146h-1.393a.475.475,0,0,1-.349-.146.481.481,0,0,1-.146-.348v-12.027a.5.5,0,0,1,.5-.5h1.393a.5.5,0,0,1,.5.495v12.027a.479.479,0,0,1-.146.348" transform="translate(-4751.276 -1529.886)" fill="#a7a7a7"/>
      <path id="Path_6403" data-name="Path 6403" d="M4832.15,1542.76a.475.475,0,0,1-.348.146h-1.394a.5.5,0,0,1-.494-.495v-12.027a.5.5,0,0,1,.494-.5h1.394a.5.5,0,0,1,.5.495v12.027a.473.473,0,0,1-.147.348" transform="translate(-4755.65 -1529.886)" fill="#a7a7a7"/>
      <path id="Path_6404" data-name="Path 6404" d="M4748.75,1536.45a.478.478,0,0,0-.349-.147h-1.394a.5.5,0,0,0-.5.495v.422a3.567,3.567,0,0,0-1.081-.77,3.846,3.846,0,0,0-1.688-.33,3.737,3.737,0,0,0-2.1.6,4.154,4.154,0,0,0-1.422,1.577,5.081,5.081,0,0,0-.568,2.136l-.018.642.018.642a5.08,5.08,0,0,0,.569,2.136,4.151,4.151,0,0,0,1.42,1.577,3.737,3.737,0,0,0,2.1.6,3.842,3.842,0,0,0,1.687-.33,3.563,3.563,0,0,0,1.082-.77v.422a.5.5,0,0,0,.5.495h1.394a.5.5,0,0,0,.5-.495V1536.8a.477.477,0,0,0-.146-.348m-2.238,5.317a2.236,2.236,0,0,1-.706,1.494,2.166,2.166,0,0,1-1.513.558,2.2,2.2,0,0,1-1.54-.55,2.515,2.515,0,0,1-.716-1.687q-.018-.183-.018-.513t.018-.513a2.515,2.515,0,0,1,.716-1.687,2.2,2.2,0,0,1,1.541-.55,2.166,2.166,0,0,1,1.513.559,2.228,2.228,0,0,1,.705,1.494,6.4,6.4,0,0,1,0,1.394" transform="translate(-4713.147 -1532.822)" fill="#a7a7a7"/>
    </g>
    <g id="Group_4912" data-name="Group 4912" transform="translate(4618.983 1517.022)">
      <path id="Path_6414" data-name="Path 6414" d="M4645.63,1523.94l-3.566-3.566a11.434,11.434,0,0,0-16.17,0l-3.565,3.566a11.431,11.431,0,0,0,0,16.17l3.565,3.566a11.434,11.434,0,0,0,16.17,0l3.566-3.566a11.431,11.431,0,0,0,0-16.17Z" transform="translate(-4618.983 -1517.023)" fill="#a7a7a7"/>
      <g id="Group_4911" data-name="Group 4911" transform="translate(9.031 4.936)">
        <rect id="Rectangle_12851" data-name="Rectangle 12851" width="3.427" height="1.01" transform="translate(7.926 4.23) rotate(-29.313)" fill="#fff"/>
        <rect id="Rectangle_12852" data-name="Rectangle 12852" width="3.427" height="1.01" transform="translate(7.437 12.234) rotate(-41.316)" fill="#fff"/>
        <rect id="Rectangle_12853" data-name="Rectangle 12853" width="3.427" height="1.01" transform="translate(8.122 13.026) rotate(-17.312)" fill="#fff"/>
        <rect id="Rectangle_12854" data-name="Rectangle 12854" width="3.427" height="1.01" transform="translate(6.488 11.789) rotate(-65.301)" fill="#fff"/>
        <rect id="Rectangle_12855" data-name="Rectangle 12855" width="3.427" height="1.01" transform="translate(1.261 9.392) rotate(-41.31)" fill="#fff"/>
        <rect id="Rectangle_12856" data-name="Rectangle 12856" width="3.427" height="1.01" transform="translate(0.244 7.151) rotate(-17.314)" fill="#fff"/>
        <rect id="Rectangle_12857" data-name="Rectangle 12857" width="3.427" height="1.01" transform="matrix(0.418, -0.909, 0.909, 0.418, 3.101, 11.024)" fill="#fff"/>
        <path id="Path_6415" data-name="Path 6415" d="M4646.37,1542.11h0l1.011.012-.041,3.427h0l-1.011-.012Z" transform="translate(-4640.889 -1533.772)" fill="#fff"/>
        <rect id="Rectangle_12858" data-name="Rectangle 12858" width="3.427" height="1.01" transform="translate(7.091 3.599) rotate(-53.336)" fill="#fff"/>
        <rect id="Rectangle_12859" data-name="Rectangle 12859" width="3.427" height="1.01" transform="translate(6.071 3.361) rotate(-77.306)" fill="#fff"/>
        <rect id="Rectangle_12860" data-name="Rectangle 12860" width="1.01" height="3.427" transform="matrix(0.981, -0.196, 0.196, 0.981, 4.37, 0.198)" fill="#fff"/>
        <rect id="Rectangle_12861" data-name="Rectangle 12861" width="1.01" height="3.427" transform="translate(2.202 1.361) rotate(-35.315)" fill="#fff"/>
        <rect id="Rectangle_12862" data-name="Rectangle 12862" width="1.01" height="3.427" transform="translate(0.695 3.305) rotate(-59.331)" fill="#fff"/>
        <rect id="Rectangle_12863" data-name="Rectangle 12863" width="1.01" height="3.427" transform="translate(0.109 5.695) rotate(-83.314)" fill="#fff"/>
        <rect id="Rectangle_12864" data-name="Rectangle 12864" width="3.427" height="1.01" transform="matrix(0.996, -0.093, 0.093, 0.996, 0, 14.286)" fill="#fff"/>
        <rect id="Rectangle_12865" data-name="Rectangle 12865" width="3.427" height="1.01" transform="translate(0.529 16.688) rotate(-29.313)" fill="#fff"/>
        <rect id="Rectangle_12866" data-name="Rectangle 12866" width="3.427" height="1.01" transform="matrix(0.597, -0.802, 0.802, 0.597, 1.99, 18.668)" fill="#fff"/>
        <rect id="Rectangle_12867" data-name="Rectangle 12867" width="3.427" height="1.01" transform="translate(4.129 19.882) rotate(-77.297)" fill="#fff"/>
        <rect id="Rectangle_12868" data-name="Rectangle 12868" width="1.01" height="3.427" transform="matrix(0.981, -0.196, 0.196, 0.981, 5.905, 16.762)" fill="#fff"/>
        <rect id="Rectangle_12869" data-name="Rectangle 12869" width="1.01" height="3.427" transform="translate(6.931 16.548) rotate(-35.315)" fill="#fff"/>
        <rect id="Rectangle_12870" data-name="Rectangle 12870" width="1.01" height="3.427" transform="matrix(0.51, -0.86, 0.86, 0.51, 7.781, 15.936)" fill="#fff"/>
        <rect id="Rectangle_12871" data-name="Rectangle 12871" width="1.01" height="3.427" transform="translate(8.309 15.032) rotate(-83.314)" fill="#fff"/>
        <rect id="Rectangle_12872" data-name="Rectangle 12872" width="3.427" height="1.01" transform="matrix(0.996, -0.093, 0.093, 0.996, 8.432, 5.148)" fill="#fff"/>
      </g>
    </g>
  </g>
</svg>
