<svg xmlns="http://www.w3.org/2000/svg" width="30" height="30" viewBox="0 0 30 30" role="img" aria-label="SmartBill">
  <g transform="translate(-4618.983 -1517.022)">
    <g id="Group_4912" data-name="Group 4912" transform="translate(4618.983 1517.022)">
      <path id="Path_6414" data-name="Path 6414" d="M4645.63,1523.94l-3.566-3.566a11.434,11.434,0,0,0-16.17,0l-3.565,3.566a11.431,11.431,0,0,0,0,16.17l3.565,3.566a11.434,11.434,0,0,0,16.17,0l3.566-3.566a11.431,11.431,0,0,0,0-16.17Z" transform="translate(-4618.983 -1517.023)" fill="#a7a7a7"/>
      <g id="Group_4911" data-name="Group 4911" transform="translate(9.031 4.936)">
        <rect id="Rectangle_12851" data-name="Rectangle 12851" width="3.427" height="1.01" transform="translate(7.926 4.23) rotate(-29.313)" fill="#fff"/>
        <rect id="Rectangle_12852" data-name="Rectangle 12852" width="3.427" height="1.01" transform="translate(7.437 12.234) rotate(-41.316)" fill="#fff"/>
        <rect id="Rectangle_12853" data-name="Rectangle 12853" width="3.427" height="1.01" transform="translate(8.122 13.026) rotate(-17.312)" fill="#fff"/>
        <rect id="Rectangle_12854" data-name="Rectangle 12854" width="3.427" height="1.01" transform="translate(6.488 11.789) rotate(-65.301)" fill="#fff"/>
        <rect id="Rectangle_12855" data-name="Rectangle 12855" width="3.427" height="1.01" transform="translate(1.261 9.392) rotate(-41.31)" fill="#fff"/>
        <rect id="Rectangle_12856" data-name="Rectangle 12856" width="3.427" height="1.01" transform="translate(0.244 7.151) rotate(-17.314)" fill="#fff"/>
        <rect id="Rectangle_12857" data-name="Rectangle 12857" width="3.427" height="1.01" transform="matrix(0.418, -0.909, 0.909, 0.418, 3.101, 11.024)" fill="#fff"/>
        <path id="Path_6415" data-name="Path 6415" d="M4646.37,1542.11h0l1.011.012-.041,3.427h0l-1.011-.012Z" transform="translate(-4640.889 -1533.772)" fill="#fff"/>
        <rect id="Rectangle_12858" data-name="Rectangle 12858" width="3.427" height="1.01" transform="translate(7.091 3.599) rotate(-53.336)" fill="#fff"/>
        <rect id="Rectangle_12859" data-name="Rectangle 12859" width="3.427" height="1.01" transform="translate(6.071 3.361) rotate(-77.306)" fill="#fff"/>
        <rect id="Rectangle_12860" data-name="Rectangle 12860" width="1.01" height="3.427" transform="matrix(0.981, -0.196, 0.196, 0.981, 4.37, 0.198)" fill="#fff"/>
        <rect id="Rectangle_12861" data-name="Rectangle 12861" width="1.01" height="3.427" transform="translate(2.202 1.361) rotate(-35.315)" fill="#fff"/>
        <rect id="Rectangle_12862" data-name="Rectangle 12862" width="1.01" height="3.427" transform="translate(0.695 3.305) rotate(-59.331)" fill="#fff"/>
        <rect id="Rectangle_12863" data-name="Rectangle 12863" width="1.01" height="3.427" transform="translate(0.109 5.695) rotate(-83.314)" fill="#fff"/>
        <rect id="Rectangle_12864" data-name="Rectangle 12864" width="3.427" height="1.01" transform="matrix(0.996, -0.093, 0.093, 0.996, 0, 14.286)" fill="#fff"/>
        <rect id="Rectangle_12865" data-name="Rectangle 12865" width="3.427" height="1.01" transform="translate(0.529 16.688) rotate(-29.313)" fill="#fff"/>
        <rect id="Rectangle_12866" data-name="Rectangle 12866" width="3.427" height="1.01" transform="matrix(0.597, -0.802, 0.802, 0.597, 1.99, 18.668)" fill="#fff"/>
        <rect id="Rectangle_12867" data-name="Rectangle 12867" width="3.427" height="1.01" transform="translate(4.129 19.882) rotate(-77.297)" fill="#fff"/>
        <rect id="Rectangle_12868" data-name="Rectangle 12868" width="1.01" height="3.427" transform="matrix(0.981, -0.196, 0.196, 0.981, 5.905, 16.762)" fill="#fff"/>
        <rect id="Rectangle_12869" data-name="Rectangle 12869" width="1.01" height="3.427" transform="translate(6.931 16.548) rotate(-35.315)" fill="#fff"/>
        <rect id="Rectangle_12870" data-name="Rectangle 12870" width="1.01" height="3.427" transform="matrix(0.51, -0.86, 0.86, 0.51, 7.781, 15.936)" fill="#fff"/>
        <rect id="Rectangle_12871" data-name="Rectangle 12871" width="1.01" height="3.427" transform="translate(8.309 15.032) rotate(-83.314)" fill="#fff"/>
        <rect id="Rectangle_12872" data-name="Rectangle 12872" width="3.427" height="1.01" transform="matrix(0.996, -0.093, 0.093, 0.996, 8.432, 5.148)" fill="#fff"/>
      </g>
    </g>
  </g>
</svg>
